<svg width="21" height="21" viewBox="0 0 21 21" fill="none" xmlns="http://www.w3.org/2000/svg">
<path d="M7.875 20V12.6C7.875 12.04 7.875 11.7599 7.98399 11.546C8.07987 11.3579 8.23285 11.2049 8.42101 11.109C8.63492 11 8.91495 11 9.475 11H12.275C12.8351 11 13.1151 11 13.329 11.109C13.5172 11.2049 13.6701 11.3579 13.766 11.546C13.875 11.7599 13.875 12.04 13.875 12.6V20M9.8927 1.76403L3.11039 7.03916C2.65702 7.39178 2.43034 7.56809 2.26703 7.78889C2.12237 7.98447 2.0146 8.20481 1.94903 8.43908C1.875 8.70355 1.875 8.99073 1.875 9.56508V16.8C1.875 17.9201 1.875 18.4802 2.09299 18.908C2.28473 19.2843 2.59069 19.5903 2.96702 19.782C3.39484 20 3.95489 20 5.075 20H16.675C17.7951 20 18.3552 20 18.783 19.782C19.1593 19.5903 19.4653 19.2843 19.657 18.908C19.875 18.4802 19.875 17.9201 19.875 16.8V9.56508C19.875 8.99073 19.875 8.70355 19.801 8.43908C19.7354 8.20481 19.6276 7.98447 19.483 7.78889C19.3197 7.56809 19.093 7.39178 18.6396 7.03916L11.8573 1.76403C11.506 1.49078 11.3303 1.35415 11.1363 1.30163C10.9652 1.25529 10.7848 1.25529 10.6137 1.30163C10.4197 1.35415 10.244 1.49078 9.8927 1.76403Z" stroke="#3A4640" stroke-width="2" stroke-linecap="round" stroke-linejoin="round"/>
</svg>
